<svg xmlns="http://www.w3.org/2000/svg" viewBox="0 0 32 32" width="32" height="32">
  <!-- Shield background -->
  <path d="M16 2L4 8v8c0 8 6 14 12 14s12-6 12-14V8L16 2z" fill="#1e293b" stroke="#64748b" stroke-width="1"/>
  
  <!-- Shield inner -->
  <path d="M16 4L6 9v7c0 6 4 11 10 11s10-5 10-11V9L16 4z" fill="#334155"/>
  
  <!-- Shield highlight -->
  <path d="M16 6L8 10v6c0 4 3 8 8 8s8-4 8-8v-6L16 6z" fill="#475569"/>
  
  <!-- Center dot -->
  <circle cx="16" cy="16" r="3" fill="#60a5fa"/>
  
  <!-- Small accent dots -->
  <circle cx="12" cy="12" r="1" fill="#93c5fd"/>
  <circle cx="20" cy="12" r="1" fill="#93c5fd"/>
  <circle cx="12" cy="20" r="1" fill="#93c5fd"/>
  <circle cx="20" cy="20" r="1" fill="#93c5fd"/>
</svg>
